<svg width="100" height="73" viewBox="0 0 100 73" fill="none" xmlns="http://www.w3.org/2000/svg">
    <path d="M31.1742 35.87L30.2062 32.625C31.2549 32.141 32.3036 31.6607 33.3522 31.184C34.4082 30.7 35.4606 30.216 36.5092 29.732L36.3442 33.472C35.4862 33.868 34.6246 34.2677 33.7592 34.671C32.9012 35.067 32.0396 35.4667 31.1742 35.87ZM34.2982 45C34.2982 44.2227 34.2982 43.471 34.2982 42.745C34.2982 42.019 34.2982 41.1977 34.2982 40.281V36.013C34.2982 35.2723 34.2982 34.5353 34.2982 33.802C34.2982 33.0613 34.2982 32.3207 34.2982 31.58L36.5092 29.732L38.5552 29.842C38.5552 30.7293 38.5552 31.613 38.5552 32.493C38.5552 33.3657 38.5552 34.2457 38.5552 35.133V40.281C38.5552 41.1977 38.5552 42.019 38.5552 42.745C38.5552 43.471 38.5552 44.2227 38.5552 45H34.2982Z" fill="#DEC377"/>
    <circle cx="35" cy="38" r="34.5" stroke="#DEC377" stroke-opacity="0.75"/>
</svg>
