<svg width="100" height="73" viewBox="0 0 100 73" fill="none" xmlns="http://www.w3.org/2000/svg">
    <path d="M29.5314 45.001V42.185C29.9054 41.8696 30.2794 41.558 30.6534 41.25C31.0274 40.942 31.4014 40.634 31.7754 40.326C32.648 39.6 33.396 38.929 34.0194 38.313C34.65 37.6896 35.134 37.0883 35.4714 36.509C35.8087 35.9296 35.9774 35.3466 35.9774 34.76C35.9774 34.1953 35.8124 33.77 35.4824 33.484C35.1597 33.1906 34.672 33.044 34.0194 33.044C33.6747 33.044 33.3227 33.088 32.9634 33.176C32.604 33.264 32.2447 33.3813 31.8854 33.528C31.526 33.6746 31.1704 33.847 30.8184 34.045C30.4664 34.2356 30.1254 34.4446 29.7954 34.672L29.4434 30.668C29.788 30.514 30.1694 30.371 30.5874 30.239C31.0054 30.0996 31.449 29.975 31.9184 29.865C32.3877 29.755 32.8754 29.6706 33.3814 29.612C33.8874 29.546 34.4007 29.513 34.9214 29.513C36.0947 29.513 37.0847 29.7 37.8914 30.074C38.7054 30.4406 39.3177 30.976 39.7284 31.68C40.1464 32.3766 40.3554 33.2126 40.3554 34.188C40.3554 34.936 40.2124 35.6803 39.9264 36.421C39.6404 37.1543 39.193 37.8766 38.5844 38.588C37.983 39.2993 37.2094 40.0033 36.2634 40.7L34.2504 42.207L33.7554 41.393H36.3074C37.004 41.393 37.7007 41.393 38.3974 41.393C39.094 41.393 39.787 41.393 40.4764 41.393V45.001H29.5314Z" fill="#DEC377"/>
    <circle cx="35" cy="38.001" r="34.5" stroke="#DEC377" stroke-opacity="0.75"/>
</svg>
