<svg width="230" height="130" fill="none" xmlns="http://www.w3.org/2000/svg"><circle cx="115" cy="70" r="58.5" stroke="#000" stroke-opacity=".1" stroke-width="3"/><path d="M132.539 73.969h-.462c.739-1.292 1.2-2.861 1.2-3.877 0-2.4-2.031-4.43-4.431-4.43s-4.43 2.03-4.43 4.43c0 1.016.461 2.585 1.2 3.877h-.462c-.923 0-1.754.277-2.492.739-.646-1.57-2.216-2.585-3.969-2.585h-.462c.738-1.292 1.2-2.862 1.2-3.877 0-2.4-2.031-4.43-4.431-4.43s-4.431 2.03-4.431 4.43c0 1.015.462 2.585 1.2 3.877h-.461c-1.754 0-3.323 1.108-3.969 2.584-.739-.461-1.57-.738-2.493-.738h-.461c.738-1.292 1.2-2.861 1.2-3.877 0-2.4-2.031-4.43-4.431-4.43s-4.43 2.03-4.43 4.43c0 1.016.46 2.585 1.2 3.877h-.462c-2.4 0-4.431 1.939-4.431 4.43v10.155c0 .369.277.738.738.738h2.954V98.8c0 .369.277.738.739.738h7.477a.728.728 0 00.738-.738V80.338a.728.728 0 00-.738-.738c-.462 0-.739.277-.739.738v17.816h-2.4V86.615a.728.728 0 00-.738-.738c-.462 0-.739.277-.739.738V97.97h-2.4V80.154a.728.728 0 00-.738-.739c-.462 0-.739.277-.739.739v7.661h-2.215v-9.507c0-1.662 1.385-3.047 3.046-3.047h1.477c.646.647 1.385 1.016 2.215 1.016.831 0 1.57-.37 2.216-1.016h1.477c.831 0 1.569.37 2.123.923v9.508c0 .37.277.739.738.739h2.954v11.353c0 .37.277.739.739.739h7.477a.728.728 0 00.738-.739V86.431h2.954a.728.728 0 00.738-.739v-9.508c.554-.553 1.293-.923 2.123-.923h1.477c.646.647 1.385 1.016 2.216 1.016.83 0 1.569-.37 2.215-1.016h1.477c1.662 0 3.046 1.385 3.046 3.047v9.507h-2.215v-7.661a.728.728 0 00-.739-.739c-.461 0-.738.277-.738.739v17.815h-2.4V86.615a.728.728 0 00-.739-.738c-.461 0-.738.277-.738.738V97.97h-2.4V80.154a.728.728 0 00-.739-.739c-.461 0-.738.277-.738.739v18.461c0 .37.277.739.738.739h7.477c.37 0 .739-.277.739-.739V89.2h2.954a.728.728 0 00.738-.739V78.308c.092-2.4-1.938-4.339-4.338-4.339zm-31.385-6.923c1.662 0 3.046 1.385 3.046 3.046 0 1.2-.738 3.046-1.661 4.062-.277.277-.554.553-.923.738h-.093c-.092 0-.277.092-.369.092-.092 0-.277 0-.369-.092h-.092c-.37-.184-.739-.461-.924-.738-.923-1.016-1.661-2.862-1.661-4.062 0-1.754 1.385-3.046 3.046-3.046zM115 65.2c1.662 0 3.046 1.384 3.046 3.046 0 1.2-.738 3.046-1.661 4.062-.277.276-.554.553-.923.738h-.093c-.092 0-.276.092-.369.092-.092 0-.277 0-.369-.092h-.092c-.37-.185-.739-.462-.923-.739-.923-1.015-1.662-2.861-1.662-4.061 0-1.754 1.385-3.046 3.046-3.046zm6.739 19.846h-2.216v-4.892a.728.728 0 00-.738-.739c-.462 0-.739.277-.739.739v16.892h-2.4V84.769a.728.728 0 00-.738-.738c-.462 0-.739.276-.739.738v12.277h-2.4V80.154a.727.727 0 00-.738-.739c-.462 0-.738.277-.738.739v4.892h-2.216v-8.585c0-1.661 1.385-3.046 3.046-3.046h1.477c.646.646 1.385 1.016 2.216 1.016.83 0 1.569-.37 2.215-1.016h1.477c1.661 0 3.046 1.385 3.046 3.046v8.585h.185zm7.107-18c1.662 0 3.047 1.385 3.047 3.046 0 1.2-.739 3.046-1.662 4.062-.277.277-.554.553-.923.738h-.092c-.093 0-.277.092-.37.092-.092 0-.277 0-.369-.092h-.092c-.369-.184-.739-.461-.923-.738-.923-1.016-1.662-2.862-1.662-4.062 0-1.754 1.385-3.046 3.046-3.046z" fill="#000" fill-opacity=".8"/><path d="M139.277 74.43a26.7 26.7 0 001.292-8.123c0-14.123-11.446-25.661-25.661-25.661-14.216 0-25.477 11.538-25.477 25.662 0 2.769.461 5.446 1.292 8.123.093.276.37.461.646.461h.185c.37-.092.554-.554.462-.83-.831-2.493-1.2-5.078-1.2-7.662 0-4.062 1.015-7.939 2.769-11.354h8.861c-.646 2.308-1.015 4.892-1.292 7.57 0 .368.277.738.646.738s.739-.277.739-.646c.184-2.77.646-5.354 1.384-7.754h10.431v5.815c0 .37.277.739.738.739.462 0 .739-.277.739-.739v-5.815h10.431c.646 2.4 1.107 4.984 1.384 7.754 0 .369.37.646.646.646h.093c.369 0 .646-.37.646-.739a38.116 38.116 0 00-1.292-7.569h8.861c1.754 3.415 2.769 7.2 2.769 11.354 0 2.584-.461 5.17-1.2 7.661-.092.37.093.739.462.831.185.093.554-.092.646-.461zM94.416 53.662c3.323-5.446 8.769-9.415 15.138-10.892-2.862 2.215-5.169 6-6.646 10.892h-8.493zm9.876 0c2.124-6.553 5.816-10.984 9.97-11.446v11.446h-9.97zm11.447 0V42.123c4.153.462 7.846 4.892 9.969 11.446h-9.969v.092zm11.446 0c-1.477-4.892-3.877-8.677-6.646-10.892 6.369 1.477 11.815 5.446 15.138 10.892h-8.492z" fill="#000" fill-opacity=".8"/></svg>