<svg width="230" height="130" fill="none" xmlns="http://www.w3.org/2000/svg"><circle cx="115" cy="70" r="58.5" stroke="#000" stroke-opacity=".1" stroke-width="3"/><path d="M122.627 86.096c4.431 0 8.677-1.292 12.369-3.785l8.585 3.785c.092 0 .184.093.277.093a.704.704 0 00.461-.185.718.718 0 00.185-.739l-3.046-9.877c2.03-3.415 3.046-7.2 3.046-11.169 0-12.092-9.877-21.969-21.969-21.969-12.093 0-21.785 9.785-21.785 21.877 0 12.092 9.785 21.97 21.877 21.97zm0-42.461c11.354 0 20.585 9.23 20.585 20.584 0 3.785-1.016 7.477-3.047 10.708-.092.184-.092.37-.092.554l2.677 8.677-7.569-3.323c-.185-.093-.462-.093-.646.092-3.508 2.492-7.57 3.784-11.908 3.784-11.354 0-20.585-9.23-20.585-20.584s9.231-20.492 20.585-20.492z" fill="#000" fill-opacity=".8"/><path d="M112.231 59.777c-2.4 0-4.338 1.938-4.338 4.43 0 2.493 1.938 4.431 4.338 4.431 2.4 0 4.431-1.938 4.431-4.43 0-2.493-2.031-4.431-4.431-4.431zm0 7.384c-1.661 0-2.954-1.384-2.954-3.046 0-1.661 1.385-3.046 2.954-3.046 1.569 0 3.046 1.384 3.046 3.046s-1.384 3.046-3.046 3.046zm6.738-3.046c0 2.4 1.939 4.431 4.431 4.431 2.4 0 4.339-1.938 4.339-4.43 0-2.493-1.939-4.431-4.339-4.431-2.492.092-4.431 2.03-4.431 4.43zm4.339-2.953c1.661 0 2.954 1.384 2.954 3.046 0 1.661-1.385 3.046-2.954 3.046-1.569 0-3.046-1.385-3.046-3.046 0-1.662 1.384-3.047 3.046-3.047zm11.077 7.384c2.4 0 4.431-1.938 4.431-4.43 0-2.493-1.939-4.431-4.431-4.431s-4.431 1.938-4.431 4.43c0 2.493 2.031 4.431 4.431 4.431zm0-7.385c1.661 0 3.046 1.385 3.046 3.047 0 1.661-1.385 3.046-3.046 3.046-1.662 0-3.046-1.385-3.046-3.046 0-1.662 1.384-3.047 3.046-3.047z" fill="#000" fill-opacity=".8"/><path d="M121.462 88.485c-3.785 3.507-8.677 5.353-13.847 5.353a20.51 20.51 0 01-11.907-3.784.567.567 0 00-.646-.092l-7.57 3.323 2.677-8.677c.093-.185 0-.37-.092-.554-1.938-3.23-3.046-6.923-3.046-10.708 0-8.492 5.077-15.969 12.923-19.108.369-.184.554-.553.369-.923-.184-.369-.554-.553-.923-.369C91 56.27 85.554 64.3 85.554 73.346c0 3.97 1.015 7.846 3.046 11.17l-2.861 9.876a.718.718 0 00.184.739.705.705 0 00.462.184c.092 0 .184 0 .277-.092l8.584-3.784a21.945 21.945 0 0012.369 3.784c5.447 0 10.708-2.03 14.77-5.723a.724.724 0 000-1.015c-.185-.185-.646-.185-.923 0z" fill="#000" fill-opacity=".8"/></svg>