<svg width="230" height="130" fill="none" xmlns="http://www.w3.org/2000/svg"><circle cx="115" cy="70" r="58.5" stroke="#000" stroke-opacity=".1" stroke-width="3"/><path d="M136.416 57.596l3.877-3.877a2.509 2.509 0 000-3.6l-3.877-3.877c-.277-.277-.554-.461-.831-.553-.277-.093-.646-.185-.923-.185-.646 0-1.293.277-1.754.738l-3.877 3.877-34.062 33.877c-.092.093-.092.185-.184.277l-3.323 9.785a.718.718 0 00.184.738c.185.092.37.185.554.185h.185l9.784-3.23c.093 0 .185-.093.277-.186l33.97-33.969zm-34.431 32.492l-2.308-2.307 32.954-32.954 2.308 2.308-32.954 32.953zm-6.277-4.338l2.492 2.492 2.493 2.493-2.493.83-3.323-3.323.83-2.492zm38.031-38.585a1.17 1.17 0 011.661 0l3.877 3.877a1.17 1.17 0 010 1.662l-3.415 3.415-2.769-2.769-2.77-2.77 3.416-3.415zm-4.339 4.339l2.308 2.308-33.046 32.953-2.308-2.307L129.4 51.504zM94.416 89.719l2.307 2.308-3.507 1.2 1.2-3.508zm49.2-25.477h-10.431a.729.729 0 00-.739.739c0 .461.277.738.739.738h10.431a.728.728 0 00.738-.738.728.728 0 00-.738-.739zM86.385 74.858h14.123a.728.728 0 00.738-.739c0-.462-.277-.738-.738-.738H86.385a.728.728 0 00-.739.738c0 .462.37.739.739.739zm57.231-1.385h-19.662a.728.728 0 00-.738.738c0 .462.276.739.738.739h19.662a.728.728 0 00.738-.739.728.728 0 00-.738-.738zm0 9.231h-28.893a.728.728 0 00-.738.738c0 .462.277.739.738.739h28.893a.728.728 0 00.738-.739.728.728 0 00-.738-.738zM103 47.165h25.2a.728.728 0 00.738-.738c0-.462-.277-.739-.738-.739H103a.729.729 0 00-.739.739c0 .461.37.738.739.738zm-6.615 9.231h19.384c.37 0 .739-.277.739-.738 0-.462-.277-.739-.739-.739H96.385a.728.728 0 00-.739.739c0 .461.37.738.739.738zm-10 9.231h23.354a.728.728 0 00.738-.739c0-.461-.277-.738-.738-.738H86.385a.728.728 0 00-.739.738c0 .462.37.739.739.739zm41.538 26.308h-22.431a.728.728 0 00-.738.738c0 .462.277.739.738.739h22.431a.729.729 0 00.739-.739.729.729 0 00-.739-.738z" fill="#000" fill-opacity=".8"/></svg>