<svg width="230" height="130" fill="none" xmlns="http://www.w3.org/2000/svg"><circle cx="115" cy="70" r="58.5" stroke="#000" stroke-opacity=".1" stroke-width="3"/><g clip-path="url(#clip0)" fill="#000" fill-opacity=".8"><path d="M118.845 90.937H90.968V58.681l14.4-14.308h26.677V60.25c0 .37.277.738.739.738.461 0 .738-.277.738-.738V43.635a.728.728 0 00-.738-.739h-27.693a.704.704 0 00-.461.185L89.768 57.942a.705.705 0 00-.184.462v33.18c0 .369.276.738.738.738h28.523a.729.729 0 00.739-.739c0-.461-.37-.646-.739-.646z"/><path d="M105.737 58.404V47.327a.728.728 0 00-.738-.739c-.462 0-.739.277-.739.739v10.43H94.014a.728.728 0 00-.738.74c0 .46.277.737.738.737h11.077a.887.887 0 00.646-.83zm20.585 6.566H95.86a.728.728 0 00-.738.738c0 .461.277.738.739.738h30.461a.729.729 0 00.739-.738.729.729 0 00-.739-.739zm.646 6.714a.728.728 0 00-.738-.738H95.768a.728.728 0 00-.739.739c0 .461.278.738.739.738h30.462c.461 0 .738-.37.738-.739zM95.86 76.923a.728.728 0 00-.738.739c0 .461.277.738.739.738h24.923a.728.728 0 00.738-.738c0-.462-.277-.739-.738-.739H95.86zm.004 5.977a.728.728 0 00-.739.738c0 .462.277.739.739.739h22.576a.728.728 0 00.738-.739c0-.461-.277-.738-.738-.738H95.864zm31.104-35.573a.728.728 0 00-.739-.739h-11.076a.728.728 0 00-.739.739V60.25c0 .37.277.738.739.738h11.076c.37 0 .739-.276.739-.738V47.327zm-1.385 12.277h-9.692V48.065h9.692v11.539z"/><path fill-rule="evenodd" clip-rule="evenodd" d="M134.476 92.194l.018-.017c.857-.8 1.922-1.224 3.054-1.224 1.154 0 2.112-.937 2.112-2.152 0-1.138.47-2.261 1.257-3.048.826-.826.826-2.2 0-3.025a4.267 4.267 0 01-1.257-3.049 2.157 2.157 0 00-2.152-2.152 4.369 4.369 0 01-3.049-1.258 2.157 2.157 0 00-3.025 0 4.268 4.268 0 01-3.048 1.258 2.157 2.157 0 00-2.152 2.152 4.37 4.37 0 01-1.258 3.049c-.433.432-.639.928-.639 1.512 0 .553.212 1.086.639 1.513a4.268 4.268 0 011.258 3.048c0 1.175.957 2.152 2.152 2.152 1.138 0 2.261.47 3.048 1.258.427.427.96.64 1.513.64.521 0 1.092-.22 1.512-.64l.017-.017zm6.584-3.393c0 1.978-1.575 3.552-3.512 3.552-.767 0-1.493.283-2.099.848a3.583 3.583 0 01-2.502 1.05 3.514 3.514 0 01-2.503-1.05 2.97 2.97 0 00-2.058-.848 3.557 3.557 0 01-3.552-3.552 2.87 2.87 0 00-.848-2.058 3.515 3.515 0 01-1.049-2.503c0-.969.363-1.816 1.049-2.502a2.968 2.968 0 00.848-2.059 3.557 3.557 0 013.552-3.552c.766 0 1.493-.282 2.058-.847a3.557 3.557 0 015.005 0 2.97 2.97 0 002.059.847 3.558 3.558 0 013.552 3.552c0 .767.282 1.493.847 2.059a3.556 3.556 0 010 5.005 2.972 2.972 0 00-.847 2.058zm-.215 3.819l1.94 4.121.961 2.079-5.093-1.856-1.061 2.918-.911 2.036-.938-1.963-2.018-4.318 1.268-.593 1.613 3.451 1.21-3.325 3.235 1.176-1.472-3.13 1.266-.596zm-9.331 3.21l-2.089 4.047-1.063 2.028-1.629-5.171-2.96.934-2.171.518.987-1.94 2.197-4.23 1.243.646-1.757 3.38 3.375-1.064 1.036 3.283 1.587-3.074 1.244.642z"/><path fill-rule="evenodd" clip-rule="evenodd" d="M138.74 81.38a6.334 6.334 0 10.472 3.392v-.002l-1.429-.194a4.893 4.893 0 01-8.054 3.033 4.887 4.887 0 01-.887-6.366 4.89 4.89 0 018.576.715l1.322-.577z"/></g><defs><clipPath id="clip0"><path fill="#fff" transform="translate(85 40)" d="M0 0h60v60H0z"/></clipPath></defs></svg>