<svg width="80" height="80" fill="none" xmlns="http://www.w3.org/2000/svg"><circle cx="40" cy="40" r="39.5" stroke="#000" stroke-opacity=".1"/><path d="M53.036 20H26.964L20 31.142V60h40V31.142L53.036 20zm5.095 10.667H40.667v-9.334h11.63l5.834 9.334zm-30.428-9.334h11.63v9.334H21.87l5.834-9.334zm-6.37 37.334V32h37.334v26.667H21.333z" fill="#DEC377"/><path d="M44 35.333h-8c-1.103 0-2 .898-2 2 0 1.103.897 2 2 2h8c1.103 0 2-.897 2-2 0-1.102-.897-2-2-2zM44 38h-8a.667.667 0 010-1.333h8A.667.667 0 0144 38zm1.333 16.667H34.667a.667.667 0 100 1.333h10.666a.667.667 0 100-1.333zM36.667 46c.368 0 .666.299.666.667v4.391l.862-.862a.665.665 0 01.943 0c.26.26.26.682 0 .943l-2 2a.668.668 0 01-.944 0l-1.999-2a.666.666 0 11.943-.943l.862.862v-4.39c0-.37.299-.667.667-.667zm7.138 7.138a.668.668 0 01-.944 0l-1.999-2a.666.666 0 11.943-.942l.862.862v-4.39a.666.666 0 111.333 0v4.39l.862-.862a.665.665 0 01.943 0c.26.26.26.682 0 .943l-2 2z" fill="#DEC377"/></svg>