<svg width="230" height="130" fill="none" xmlns="http://www.w3.org/2000/svg"><circle cx="115" cy="70" r="58.5" stroke="#000" stroke-opacity=".1" stroke-width="3"/><path d="M130.292 93.82H94.679V58.444l12.264-12.185h22.721V59.78a.62.62 0 00.628.629c.394 0 .629-.236.629-.63V45.63a.62.62 0 00-.629-.629h-23.584a.602.602 0 00-.394.157L93.657 57.815a.6.6 0 00-.157.393V94.37a.62.62 0 00.629.629h36.163a.62.62 0 00.629-.629c0-.393-.314-.55-.629-.55z" fill="#000" fill-opacity=".8"/><path d="M107.258 58.207v-9.434a.62.62 0 00-.629-.629c-.393 0-.629.236-.629.63v8.883h-8.727a.62.62 0 00-.629.629c0 .393.236.629.63.629h9.433a.755.755 0 00.551-.708zm17.532 4.953H98.847a.62.62 0 00-.63.63c0 .392.237.628.63.628h25.943a.62.62 0 00.629-.629.62.62 0 00-.629-.629zm.55 5.268a.62.62 0 00-.629-.63H98.768a.62.62 0 00-.63.63c0 .393.236.629.63.629h25.943a.62.62 0 00.629-.63zm-26.493 4.166a.62.62 0 00-.63.63c0 .392.237.628.63.628h21.226a.62.62 0 00.629-.629c0-.393-.236-.629-.629-.629H98.847z" fill="#000" fill-opacity=".8"/><path d="M132.494 70.236c-4.56 0-8.57 2.83-10.142 7.075h-21.855a.597.597 0 00-.393.157l-3.145 3.145a.6.6 0 00-.157.393c0 .157 0 .236.078.393l3.145 3.145a.602.602 0 00.393.157h3.223a.597.597 0 00.393-.157l1.809-1.808 1.965 1.808a.602.602 0 00.393.157h.786a.597.597 0 00.393-.157l1.809-1.808 1.808 1.808a.6.6 0 00.393.157h.786a.602.602 0 00.393-.157l1.808-1.808 1.808 1.808a.602.602 0 00.393.157h3.538c1.573 4.246 5.582 7.076 10.142 7.076 5.975 0 10.849-4.874 10.849-10.85 0-5.974-4.639-10.691-10.613-10.691zm0 20.44c-4.246 0-7.862-2.673-9.199-6.682a.59.59 0 00-.55-.393h-3.695l-2.044-2.044a.6.6 0 00-.393-.158.602.602 0 00-.393.158l-2.123 1.965h-.314l-2.044-2.044a.617.617 0 00-.865 0l-2.044 2.044h-.314l-2.044-2.044a.617.617 0 00-.865 0l-2.044 2.044h-2.83l-2.595-2.594 2.595-2.595h22.091a.591.591 0 00.55-.393c1.337-3.93 4.953-6.603 9.12-6.603a9.663 9.663 0 019.669 9.67 9.663 9.663 0 01-9.669 9.67z" fill="#000" fill-opacity=".8"/><path d="M136.424 76.918a4.06 4.06 0 00-4.088 4.088 4.06 4.06 0 004.088 4.088 4.06 4.06 0 004.088-4.088 4.06 4.06 0 00-4.088-4.088zm0 6.997c-1.572 0-2.909-1.336-2.909-2.909 0-1.572 1.337-2.909 2.909-2.909 1.573 0 2.909 1.337 2.909 2.91a2.902 2.902 0 01-2.909 2.908zM125.34 48.773a.62.62 0 00-.629-.629h-9.434a.62.62 0 00-.629.63V59.78a.62.62 0 00.629.629h9.434a.62.62 0 00.629-.63V48.774zm-1.179 10.456h-8.255v-9.827h8.255v9.827z" fill="#000" fill-opacity=".8"/></svg>