<svg width="80" height="80" fill="none" xmlns="http://www.w3.org/2000/svg"><circle cx="40" cy="40" r="39.5" stroke="#000" stroke-opacity=".1"/><g clip-path="url(#clip0)" fill="#DEC377"><path d="M53.494 54.6H50.19a.66.66 0 010-1.321h3.303a5.29 5.29 0 005.285-5.285v-9.248a5.29 5.29 0 00-5.285-5.284H50.19a.66.66 0 010-1.321h3.303a6.613 6.613 0 016.606 6.605v9.248a6.613 6.613 0 01-6.606 6.606z"/><path d="M53.494 50.636H50.19a.66.66 0 010-1.32h3.303a1.321 1.321 0 001.321-1.322v-9.248a1.32 1.32 0 00-1.321-1.32H50.19a.66.66 0 010-1.322h3.303a2.642 2.642 0 012.642 2.642v9.248a2.642 2.642 0 01-2.642 2.642z"/><path d="M48.87 57.242H27.732a1.982 1.982 0 01-1.982-1.982V31.48a1.982 1.982 0 011.982-1.982H48.87a1.982 1.982 0 011.982 1.982v23.78a1.982 1.982 0 01-1.982 1.982zM27.732 30.82a.66.66 0 00-.66.661v23.78a.66.66 0 00.66.661H48.87a.66.66 0 00.66-.66V31.48a.66.66 0 00-.66-.66H27.732zm5.284-2.643a.66.66 0 01-.467-1.128 1.52 1.52 0 000-2.368 2.84 2.84 0 010-4.237.66.66 0 11.934.934 1.519 1.519 0 000 2.369 2.84 2.84 0 010 4.237.66.66 0 01-.467.193zm5.284 0a.66.66 0 01-.466-1.128 1.519 1.519 0 000-2.368 2.84 2.84 0 010-4.237.66.66 0 11.934.934 1.52 1.52 0 000 2.369 2.84 2.84 0 010 4.237.66.66 0 01-.467.193zm5.285 0a.66.66 0 01-.467-1.128 1.52 1.52 0 000-2.368 2.84 2.84 0 010-4.237.66.66 0 11.934.934 1.519 1.519 0 000 2.369 2.84 2.84 0 010 4.237.66.66 0 01-.467.193z"/></g><defs><clipPath id="clip0"><path fill="#fff" transform="translate(20 20)" d="M0 0h40v40H0z"/></clipPath></defs></svg>