<svg width="80" height="80" fill="none" xmlns="http://www.w3.org/2000/svg"><circle cx="40" cy="40" r="39.5" stroke="#000" stroke-opacity=".1"/><g clip-path="url(#clip0)" fill="#DEC377"><path d="M59.64 43.99c-1.17-1.627-2.354-1.653-5.32-.093l-5.75 3.515c-.851.453-2.6.59-4.296.618.301-.627.167-1.376-.403-2.227a5.531 5.531 0 00-2.078-1.839A5.936 5.936 0 0044 39.334a6.008 6.008 0 00-6-6.001c-3.31 0-6 2.692-6 6 0 .988.245 1.93.684 2.771-.009-.006-.018-.011-.026-.018-2.393-1.805-6.392-2.06-7.991-2.087v-2.018H20v21.353h4.667v-2h8.667c1.36 0 2.732-.104 4.077-.308l8.642-1.314c.315-.004.634-.042.918-.106.796-.112 1.557-.492 2.201-1.1l10.105-7.87.016-.012a1.951 1.951 0 00.346-2.633zm-24.193-.757a4.635 4.635 0 01-2.113-3.9A4.672 4.672 0 0138 34.666a4.672 4.672 0 014.666 4.667 4.63 4.63 0 01-2.434 4.093c-.083-.016-.167-.024-.25-.037-.084-.012-.166-.027-.25-.036a5.936 5.936 0 00-.654-.039h-2.6c-.335 0-.682-.027-1.032-.081zM23.333 58h-2V39.315h2V58zM58.45 45.592l-10.122 7.882-.051.045c-.447.427-.962.693-1.556.779a3.32 3.32 0 01-.72.081l-8.79 1.329a25.94 25.94 0 01-3.876.293h-8.667V41.335c1.478.03 5.137.269 7.19 1.816.89.672 1.958 1.128 3.096 1.346l.01.006.127.022c.006.002.012.002.02.003.218.037.44.067.663.087l.02.002c.227.02.456.031.685.031h2.6c.367 0 .734.043 1.09.129l.043.01c1.048.26 1.96.877 2.551 1.76.28.417.391.765.297.928-.178.308-1.004.497-1.842.534a45.335 45.335 0 00-.739-.008h-6.477c-2.088 0-3.334.997-3.334 2.667a.667.667 0 101.333 0c0-.33 0-1.334 2-1.334h6.463a8.4 8.4 0 00.808.009l.355.006c3.129.058 6.063.042 7.606-.78l5.745-3.513c2.75-1.445 3.026-1.057 3.578-.288a.615.615 0 01-.106.824z"/><path d="M41.334 39.333A3.337 3.337 0 0038.001 36a3.337 3.337 0 00-3.334 3.333 3.337 3.337 0 003.334 3.334 3.337 3.337 0 003.333-3.334zm-3.333 2c-1.103 0-2-.897-2-2 0-1.102.897-2 2-2 1.102 0 2 .898 2 2 0 1.103-.898 2-2 2zM48 32.666c3.31 0 6.001-2.692 6.001-6s-2.691-6-6-6-6 2.692-6 6 2.691 6 6 6zM48 22a4.672 4.672 0 014.668 4.667A4.672 4.672 0 0148 31.333a4.672 4.672 0 01-4.667-4.667A4.672 4.672 0 0148.001 22z"/><path d="M48 30a3.337 3.337 0 003.334-3.334 3.337 3.337 0 00-3.333-3.333 3.337 3.337 0 00-3.334 3.333A3.337 3.337 0 0048.002 30zm0-5.334c1.104 0 2.001.898 2.001 2 0 1.103-.897 2-2 2s-2-.897-2-2c0-1.102.897-2 2-2z"/></g><defs><clipPath id="clip0"><path fill="#fff" transform="translate(20 20)" d="M0 0h40v40H0z"/></clipPath></defs></svg>