<svg width="80" height="80" fill="none" xmlns="http://www.w3.org/2000/svg"><circle cx="40" cy="40" r="39.5" stroke="#000" stroke-opacity=".1"/><path d="M60 31.162h-5.954v-2.564h-16.22l-1.923-5.127H22v31.405h32.046v-.56L60 31.162zm-1.654 1.282l-4.3 16.725V32.444h4.3zm-35.064-7.691h11.733l1.923 5.127h15.826v23.714H23.282V24.753z" fill="#DEC377"/><path d="M25.846 51.03h15.381v-9.614H25.846v9.614zm1.281-8.332h12.819v7.05H27.127v-7.05z" fill="#DEC377"/><path d="M34.818 47.185H29.05a.64.64 0 100 1.282h5.768a.64.64 0 100-1.282zm-5.768-1.923h2.564a.64.64 0 100-1.282H29.05a.64.64 0 100 1.282zm8.973-1.282H36.74a.64.64 0 100 1.282h1.282a.64.64 0 100-1.282zm-1.096 3.39a.657.657 0 00-.186.456c0 .173.07.333.186.448a.64.64 0 00.91.007.674.674 0 00.186-.455.673.673 0 00-.186-.455.671.671 0 00-.91 0zm-2.749-2.108c.166 0 .333-.07.455-.186a.674.674 0 00.185-.455.66.66 0 00-.185-.455c-.238-.237-.68-.237-.91 0a.67.67 0 00-.186.455c0 .167.07.334.185.455a.672.672 0 00.456.186z" fill="#DEC377"/></svg>