<svg width="80" height="80" fill="none" xmlns="http://www.w3.org/2000/svg"><circle cx="40" cy="40" r="39.5" stroke="#000" stroke-opacity=".1"/><path fill-rule="evenodd" clip-rule="evenodd" d="M40 21c-10.19 0-18.507 8.022-18.979 18.095H21v8.947a4.926 4.926 0 109.852 0v-4.02a4.926 4.926 0 00-4.926-4.927h-3.093C23.303 30.022 30.81 22.81 40 22.81c9.19 0 16.697 7.212 17.167 16.285h-3.093a4.926 4.926 0 00-4.926 4.926v4.021a4.926 4.926 0 008.043 3.815v.206c0 1.94-.329 3.235-.854 4.022-.482.723-1.186 1.105-2.263 1.105H43.117V59h10.957c1.604 0 2.91-.623 3.769-1.91.815-1.224 1.157-2.944 1.157-5.027V40c0-10.493-8.507-19-19-19zM22.81 48.042v-7.137h3.116a3.116 3.116 0 013.116 3.116v4.021a3.116 3.116 0 11-6.233 0zm31.264-7.137h3.117v7.137a3.116 3.116 0 01-6.233 0v-4.02a3.116 3.116 0 013.116-3.117z" fill="#DEC377"/></svg>