<svg width="80" height="80" fill="none" xmlns="http://www.w3.org/2000/svg"><circle cx="40" cy="40" r="39.5" stroke="#000" stroke-opacity=".1"/><g clip-path="url(#clip0)" fill="#DEC377"><path d="M59.473 20.195a.666.666 0 00-.943 0l-2.472 2.472H40.536L21.02 42.342a2.336 2.336 0 00-.689 1.663c0 .628.245 1.22.69 1.663l13.644 13.645A2.358 2.358 0 0038 59.306l19-19.513V23.609l2.471-2.471a.667.667 0 000-.943zM55.668 39.25L37.05 58.37a1.02 1.02 0 01-1.441 0L21.964 44.727a1.013 1.013 0 01-.299-.72c0-.273.106-.529.301-.724L41.091 24h13.634l-3.222 3.222a3.312 3.312 0 00-1.836-.555A3.337 3.337 0 0046.334 30a3.337 3.337 0 003.333 3.334A3.337 3.337 0 0053.002 30c0-.678-.206-1.308-.555-1.835l3.222-3.222V39.25zm-4-9.25c0 1.103-.898 2-2 2-1.103 0-2-.897-2-2 0-1.102.897-2 2-2 .307 0 .596.076.856.201l-1.328 1.328a.666.666 0 10.943.943l1.328-1.328c.125.26.2.548.2.856z"/><path d="M46.943 34.088a.666.666 0 10-.943-.943l-.498.498a5.977 5.977 0 00-4.246-1.292 3.93 3.93 0 00-2.741 1.462 4.197 4.197 0 00-.9 3.15l.507 4.06-5.965 5.965a4.67 4.67 0 01.434-6.09.666.666 0 10-.943-.944 6.006 6.006 0 00-.444 7.987l-.76.761a.666.666 0 10.942.943l.762-.762a5.988 5.988 0 004.245 1.293 3.923 3.923 0 002.74-1.461 4.196 4.196 0 00.901-3.15l-.507-4.06 5.965-5.966a4.671 4.671 0 01-.434 6.092.666.666 0 10.943.943 6.008 6.008 0 00.443-7.987l.499-.499zM38.71 45.731a2.856 2.856 0 01-.613 2.145 2.604 2.604 0 01-1.816.973 4.697 4.697 0 01-3.181-.917l5.23-5.232.38 3.03zm.227-8.933a2.857 2.857 0 01.612-2.145 2.61 2.61 0 011.817-.974 4.674 4.674 0 013.181.918l-5.231 5.231-.38-3.03z"/></g><defs><clipPath id="clip0"><path fill="#fff" transform="translate(20 20)" d="M0 0h40v40H0z"/></clipPath></defs></svg>