<svg width="80" height="80" fill="none" xmlns="http://www.w3.org/2000/svg"><circle cx="40" cy="40" r="39.5" stroke="#000" stroke-opacity=".1"/><path d="M55.333 47.38v-8.047H40.667v-6.712a5.339 5.339 0 004.666-5.288A5.34 5.34 0 0040 22a5.34 5.34 0 00-5.333 5.333 5.339 5.339 0 004.666 5.288v6.712H24.667v8.046C22.04 47.71 20 49.952 20 52.667A5.34 5.34 0 0025.333 58a5.34 5.34 0 005.334-5.333A5.339 5.339 0 0026 47.379v-6.712h13.333v6.712a5.339 5.339 0 00-4.666 5.288A5.34 5.34 0 0040 58a5.34 5.34 0 005.333-5.333 5.339 5.339 0 00-4.666-5.288v-6.712H54v6.712a5.339 5.339 0 00-4.667 5.288A5.34 5.34 0 0054.667 58 5.34 5.34 0 0060 52.667a5.339 5.339 0 00-4.667-5.288zM36 27.332c0-2.206 1.794-4 4-4s4 1.794 4 4-1.794 4-4 4-4-1.794-4-4zm-6.667 25.334c0 2.206-1.794 4-4 4s-4-1.794-4-4 1.794-4 4-4 4 1.794 4 4zm14.667 0c0 2.206-1.794 4-4 4s-4-1.794-4-4 1.794-4 4-4 4 1.794 4 4zm10.667 4c-2.206 0-4-1.794-4-4s1.794-4 4-4 4 1.794 4 4-1.794 4-4 4z" fill="#DEC377"/></svg>