<svg width="80" height="80" fill="none" xmlns="http://www.w3.org/2000/svg"><circle cx="40" cy="40" r="39.5" stroke="#000" stroke-opacity=".1"/><g clip-path="url(#clip0)"><path d="M56.41 46H46v-4h-2.666v-4.162c0-1.425.614-2.764 1.644-3.583A7.949 7.949 0 0048 28a8.01 8.01 0 00-2.675-5.97 8.037 8.037 0 00-6.263-1.976c-3.569.406-6.508 3.281-6.987 6.836-.38 2.816.704 5.555 2.902 7.329 1.058.854 1.69 2.253 1.69 3.742V42H34v4H23.59c-.877 0-1.59.713-1.59 1.59v7.487c0 .876.713 1.59 1.59 1.59h.47A4.003 4.003 0 0028 60.001h24.001a4.004 4.004 0 003.94-3.334h.47c.877 0 1.591-.713 1.591-1.59V47.59A1.595 1.595 0 0056.41 46zM35.814 33.18c-1.831-1.477-2.736-3.763-2.417-6.112.4-2.96 2.846-5.351 5.817-5.69 1.933-.218 3.788.364 5.224 1.646A6.673 6.673 0 0146.668 28c0 2.04-.918 3.94-2.52 5.212-1.365 1.085-2.147 2.771-2.147 4.626v4.161h-4v-4.038c-.001-1.916-.798-3.66-2.187-4.78zm-.48 10.153h9.333V46h-9.334v-2.667zM52 58.667H28a2.67 2.67 0 01-2.582-2h29.165a2.67 2.67 0 01-2.582 2zm4.667-3.59a.258.258 0 01-.257.257H23.59a.258.258 0 01-.257-.257V47.59c0-.142.115-.257.257-.257h32.82c.142 0 .257.115.257.257v7.487z" fill="#DEC377"/></g><defs><clipPath id="clip0"><path fill="#fff" transform="translate(20 20)" d="M0 0h40v40H0z"/></clipPath></defs></svg>