<svg width="230" height="130" fill="none" xmlns="http://www.w3.org/2000/svg"><circle cx="115" cy="70" r="58.5" stroke="#000" stroke-opacity=".1" stroke-width="3"/><path d="M115 65.108a.728.728 0 00.738-.739c0-.461-.277-.738-.738-.738-3.416 0-6.277 2.77-6.277 6.277s2.769 6.277 6.277 6.277 6.277-2.77 6.277-6.277a.728.728 0 00-.739-.739c-.461 0-.738.277-.738.739 0 2.677-2.216 4.892-4.892 4.892-2.677 0-4.893-2.215-4.893-4.892 0-2.677 2.308-4.8 4.985-4.8z" fill="#000" fill-opacity=".8"/><path d="M134.661 54.585c-.276.184-.369.646-.184.923 3.138 4.154 4.708 9.138 4.708 14.4 0 13.477-10.8 24.277-24.185 24.277-13.385 0-24.277-10.8-24.277-24.185 0-13.385 10.892-24.277 24.277-24.277a24.225 24.225 0 0114.4 4.708c.277.184.738.184.923-.185.185-.277.185-.738-.185-.923-4.43-3.323-9.692-4.984-15.23-4.984-14.031 0-25.57 11.538-25.57 25.661 0 14.123 11.447 25.662 25.662 25.662A25.607 25.607 0 00140.661 70c0-5.538-1.753-10.8-4.984-15.23-.277-.278-.739-.37-1.016-.185z" fill="#000" fill-opacity=".8"/><path d="M125.8 54.954c.185-.277.092-.739-.185-.923-3.138-2.123-6.738-3.139-10.523-3.139-10.523 0-19.2 8.585-19.2 19.2 0 10.616 8.585 19.2 19.2 19.2 10.616 0 19.2-8.584 19.2-19.2 0-3.784-1.107-7.384-3.138-10.523-.185-.277-.646-.369-.923-.184-.277.184-.369.646-.185.923 1.939 2.861 2.954 6.277 2.954 9.784 0 9.785-7.938 17.816-17.815 17.816a17.767 17.767 0 01-17.816-17.816 17.768 17.768 0 0117.816-17.815c3.507 0 6.923 1.015 9.784 2.954.185.184.554.092.831-.277z" fill="#000" fill-opacity=".8"/><path d="M121.092 59.662c.185-.37 0-.739-.277-.923-1.754-.923-3.784-1.385-5.815-1.385-7.015 0-12.739 5.723-12.739 12.739 0 7.015 5.724 12.738 12.739 12.738 7.015 0 12.738-5.723 12.738-12.739 0-2.03-.461-3.969-1.384-5.815-.185-.37-.554-.462-.923-.277-.37.185-.462.554-.277.923.831 1.57 1.2 3.323 1.2 5.17A11.346 11.346 0 01115 81.445a11.346 11.346 0 01-11.354-11.353A11.346 11.346 0 01115 58.739c1.846 0 3.508.461 5.169 1.2.277.184.739 0 .923-.277z" fill="#000" fill-opacity=".8"/><path d="M141.77 48.123h-3.877l3.415-3.508a.724.724 0 000-1.015c-.277-.277-.646-.184-.923.092l-3.415 3.416V43.23a.728.728 0 00-.739-.739c-.461 0-.738.277-.738.739v5.261L114.539 69.54a.724.724 0 000 1.015.704.704 0 00.461.185c.185 0 .37-.093.462-.185l21.046-21.046h5.262a.728.728 0 00.738-.739c0-.461-.369-.646-.738-.646z" fill="#000" fill-opacity=".8"/></svg>