<svg width="230" height="130" fill="none" xmlns="http://www.w3.org/2000/svg"><circle cx="115" cy="70" r="58.5" stroke="#000" stroke-opacity=".1" stroke-width="3"/><path d="M137.715 56.811c-13.477-.184-22.153-12.184-22.246-12.276a.692.692 0 00-1.107 0c-.093.092-8.77 12.092-22.247 12.276a.63.63 0 00-.646.647c0 .276-2.584 27.692 23.262 38.953.092 0 .184.093.277.093.092 0 .184 0 .277-.093 25.753-11.169 23.261-38.677 23.261-38.953-.184-.37-.461-.647-.831-.647zm-22.8 38.123c-22.43-9.876-22.338-32.769-22.153-36.738 12-.462 20.03-9.415 22.153-12.092 2.123 2.677 10.154 11.63 22.154 12.092.185 3.97.277 26.862-22.154 36.739z" fill="#000" fill-opacity=".8"/><path d="M132.361 61.796c-7.569-1.477-13.384-5.815-16.984-9.139-.231-.212-.462-.435-.462-.435l-.461.435c-3.508 3.324-9.416 7.662-16.985 9.139-.214.053-.59.134-.59.134s.036.45.036.605c.554 7.2 3.508 20.4 17.631 27.692.092.092.185.092.277.092.092 0 .185 0 .277-.092 14.215-7.293 16.948-20.51 17.631-27.693l.064-.658s-.018-.006-.434-.08zm-17.446 27.046c-12.923-6.83-15.877-18.83-16.523-25.754 7.293-1.569 12.923-5.63 16.523-8.953 3.6 3.323 9.323 7.292 16.523 8.953-.553 6.923-3.6 18.923-16.523 25.754z" fill="#000" fill-opacity=".8"/><path d="M111.039 65.212v3.046h-2.862v10.707h14.4V68.258h-2.862v-3.046c0-2.4-1.938-4.431-4.43-4.431-2.493 0-4.246 2.03-4.246 4.43zm10.153 12.276h-11.538v-7.846h11.631v7.847h-.093zm-8.677-12.276c0-1.662 1.293-3.047 2.954-3.047 1.662 0 3.046 1.385 3.046 3.047v3.046h-6v-3.046z" fill="#000" fill-opacity=".8"/><path d="M115.377 71.95h-.739v3.323h1.477V71.95h-.738z" fill="#000" fill-opacity=".8"/></svg>